<?xml version="1.0" encoding="UTF-8" standalone="no"?><!DOCTYPE svg PUBLIC "-//W3C//DTD SVG 1.1//EN" "http://www.w3.org/Graphics/SVG/1.1/DTD/svg11.dtd"><svg width="100%" height="100%" viewBox="0 0 140 30" version="1.1" xmlns="http://www.w3.org/2000/svg" xmlns:xlink="http://www.w3.org/1999/xlink" xml:space="preserve" xmlns:serif="http://www.serif.com/" style="fill-rule:evenodd;clip-rule:evenodd;stroke-linejoin:round;stroke-miterlimit:2;"><path d="M22.419,13.371c-0.379,0.381 -0.669,0.841 -0.85,1.348c-0.181,0.506 -0.248,1.046 -0.196,1.581l-0.018,-0.018c0.053,0.63 -0.032,1.264 -0.249,1.857c-0.217,0.594 -0.561,1.133 -1.008,1.58c-0.447,0.447 -0.986,0.791 -1.58,1.008c-0.593,0.217 -1.227,0.302 -1.857,0.249l0.018,0.018c-0.753,-0.07 -1.51,0.094 -2.167,0.47c-0.657,0.375 -1.182,0.944 -1.503,1.629c-0.322,0.685 -0.424,1.453 -0.294,2.198c0.131,0.745 0.488,1.432 1.024,1.967c0.535,0.535 1.222,0.892 1.967,1.021c0.746,0.131 1.513,0.027 2.198,-0.295c0.685,-0.322 1.253,-0.847 1.628,-1.505c0.375,-0.657 0.539,-1.414 0.468,-2.167l0.019,0.018c-0.053,-0.63 0.032,-1.264 0.249,-1.857c0.217,-0.594 0.561,-1.133 1.008,-1.58c0.447,-0.447 0.986,-0.791 1.58,-1.008c0.593,-0.217 1.227,-0.302 1.857,-0.249l-0.019,-0.018c0.615,0.055 1.235,-0.046 1.801,-0.293c0.566,-0.248 1.06,-0.635 1.437,-1.125c0.377,-0.489 0.624,-1.066 0.719,-1.677c0.094,-0.611 0.033,-1.235 -0.178,-1.816c-0.211,-0.581 -0.566,-1.099 -1.031,-1.506c-0.464,-0.407 -1.024,-0.691 -1.628,-0.824c-0.603,-0.133 -1.23,-0.112 -1.823,0.062c-0.593,0.174 -1.133,0.494 -1.569,0.932l-0.003,-0Z" style="fill:#fff;fill-rule:nonzero;"/><path d="M15.042,18.636l-0.019,-0.018c0.535,0.054 1.076,-0.012 1.583,-0.192c0.507,-0.181 0.967,-0.472 1.348,-0.852c0.38,-0.38 0.672,-0.841 0.852,-1.347c0.181,-0.507 0.248,-1.048 0.194,-1.583l0.019,0.018c-0.053,-0.63 0.032,-1.264 0.249,-1.857c0.217,-0.594 0.561,-1.133 1.008,-1.58c0.447,-0.447 0.986,-0.791 1.58,-1.008c0.593,-0.217 1.227,-0.302 1.857,-0.249l-0.019,-0.018c0.754,0.071 1.51,-0.093 2.168,-0.468c0.657,-0.375 1.182,-0.944 1.504,-1.629c0.322,-0.685 0.425,-1.452 0.295,-2.198c-0.13,-0.745 -0.487,-1.432 -1.022,-1.968c-0.535,-0.535 -1.223,-0.892 -1.968,-1.022c-0.746,-0.13 -1.513,-0.027 -2.198,0.295c-0.685,0.322 -1.254,0.847 -1.629,1.504c-0.375,0.658 -0.539,1.415 -0.468,2.168l-0.018,-0.019c0.053,0.63 -0.031,1.264 -0.248,1.858c-0.217,0.593 -0.562,1.132 -1.008,1.58c-0.447,0.446 -0.987,0.791 -1.58,1.008c-0.594,0.217 -1.228,0.301 -1.858,0.248l0.018,0.019c-0.535,-0.054 -1.076,0.012 -1.583,0.192c-0.507,0.181 -0.967,0.472 -1.348,0.852c-0.38,0.381 -0.671,0.841 -0.852,1.347c-0.181,0.507 -0.247,1.048 -0.194,1.583l-0.018,-0.018c0.053,0.63 -0.032,1.264 -0.249,1.857c-0.217,0.594 -0.561,1.133 -1.008,1.58c-0.447,0.447 -0.986,0.791 -1.58,1.008c-0.593,0.217 -1.227,0.302 -1.857,0.249l0.018,0.018c-0.753,-0.071 -1.51,0.093 -2.168,0.468c-0.657,0.375 -1.182,0.944 -1.504,1.629c-0.322,0.685 -0.425,1.452 -0.295,2.198c0.13,0.745 0.487,1.433 1.022,1.968c0.536,0.535 1.223,0.892 1.968,1.022c0.746,0.13 1.513,0.027 2.198,-0.295c0.685,-0.322 1.254,-0.847 1.629,-1.504c0.375,-0.658 0.539,-1.414 0.468,-2.168l0.019,0.018c-0.053,-0.63 0.032,-1.264 0.249,-1.857c0.217,-0.594 0.561,-1.133 1.008,-1.58c0.447,-0.447 0.986,-0.791 1.58,-1.008c0.593,-0.217 1.227,-0.302 1.857,-0.249Z" style="fill:#fff;fill-rule:nonzero;"/><path d="M8.34,16.629c0.379,-0.381 0.669,-0.841 0.85,-1.348c0.18,-0.506 0.247,-1.046 0.195,-1.581l0.019,0.018c-0.053,-0.63 0.032,-1.264 0.249,-1.858c0.217,-0.594 0.561,-1.133 1.009,-1.58c0.447,-0.447 0.986,-0.791 1.58,-1.008c0.594,-0.217 1.228,-0.301 1.858,-0.248l-0.019,-0.018c0.753,0.071 1.51,-0.093 2.167,-0.468c0.657,-0.375 1.182,-0.944 1.504,-1.629c0.321,-0.684 0.424,-1.452 0.294,-2.197c-0.13,-0.745 -0.487,-1.432 -1.022,-1.967c-0.535,-0.535 -1.222,-0.892 -1.967,-1.022c-0.745,-0.13 -1.513,-0.027 -2.197,0.294c-0.685,0.322 -1.254,0.847 -1.629,1.504c-0.375,0.657 -0.539,1.414 -0.468,2.167l-0.018,-0.018c0.053,0.63 -0.032,1.264 -0.249,1.857c-0.217,0.594 -0.561,1.133 -1.008,1.58c-0.447,0.447 -0.986,0.791 -1.58,1.008c-0.593,0.217 -1.227,0.302 -1.857,0.249l0.018,0.018c-0.615,-0.055 -1.235,0.046 -1.801,0.294c-0.566,0.248 -1.06,0.634 -1.437,1.124c-0.376,0.49 -0.623,1.067 -0.718,1.678c-0.094,0.61 -0.033,1.235 0.178,1.815c0.212,0.581 0.566,1.099 1.031,1.506c0.465,0.408 1.025,0.691 1.628,0.824c0.603,0.133 1.23,0.112 1.823,-0.062c0.593,-0.174 1.133,-0.494 1.569,-0.932l-0.002,-0Z" style="fill:#fff;fill-rule:nonzero;"/><rect x="39.317" y="6.655" width="2.97" height="14.453" style="fill:#fff;fill-rule:nonzero;"/><path d="M43.969,16.159c-0.004,-1.039 0.3,-2.055 0.874,-2.921c0.574,-0.865 1.392,-1.541 2.35,-1.941c0.959,-0.401 2.014,-0.508 3.034,-0.308c1.019,0.2 1.956,0.698 2.692,1.431c0.736,0.733 1.237,1.668 1.442,2.687c0.204,1.018 0.101,2.074 -0.295,3.034c-0.397,0.96 -1.069,1.781 -1.933,2.358c-0.863,0.578 -1.878,0.886 -2.917,0.886c-0.689,0.008 -1.374,-0.122 -2.012,-0.381c-0.639,-0.26 -1.22,-0.644 -1.708,-1.131c-0.489,-0.486 -0.875,-1.065 -1.138,-1.703c-0.262,-0.638 -0.394,-1.321 -0.389,-2.011Zm7.524,0c-0.012,-0.448 -0.157,-0.882 -0.414,-1.248c-0.258,-0.366 -0.618,-0.649 -1.035,-0.811c-0.418,-0.163 -0.873,-0.199 -1.311,-0.104c-0.438,0.095 -0.838,0.317 -1.15,0.638c-0.312,0.321 -0.523,0.727 -0.606,1.167c-0.083,0.44 -0.034,0.895 0.14,1.307c0.175,0.413 0.467,0.765 0.84,1.012c0.373,0.248 0.811,0.38 1.259,0.38c0.307,0.008 0.612,-0.047 0.896,-0.163c0.284,-0.116 0.541,-0.289 0.755,-0.509c0.214,-0.22 0.38,-0.482 0.488,-0.769c0.108,-0.287 0.155,-0.594 0.138,-0.9Z" style="fill:#fff;fill-rule:nonzero;"/><path d="M66.3,11.209l0,9.4c0,3.326 -2.594,4.732 -5.227,4.732c-0.927,0.069 -1.855,-0.118 -2.683,-0.541c-0.828,-0.424 -1.523,-1.067 -2.009,-1.859l2.534,-1.465c0.204,0.413 0.53,0.754 0.933,0.977c0.404,0.222 0.866,0.317 1.324,0.27c0.293,0.041 0.591,0.015 0.873,-0.076c0.282,-0.09 0.54,-0.242 0.754,-0.446c0.215,-0.203 0.381,-0.452 0.487,-0.728c0.106,-0.277 0.148,-0.573 0.123,-0.868l0,-0.905c-0.348,0.425 -0.79,0.764 -1.292,0.987c-0.503,0.224 -1.05,0.326 -1.599,0.3c-1.306,-0.041 -2.545,-0.589 -3.454,-1.528c-0.91,-0.938 -1.418,-2.194 -1.418,-3.5c-0,-1.307 0.508,-2.563 1.418,-3.501c0.909,-0.939 2.148,-1.487 3.454,-1.528c0.549,-0.026 1.096,0.076 1.599,0.3c0.502,0.223 0.944,0.561 1.292,0.987l0,-1.01l2.891,0.002Zm-2.89,4.751c0.02,-0.479 -0.104,-0.952 -0.355,-1.36c-0.252,-0.408 -0.62,-0.731 -1.056,-0.928c-0.437,-0.197 -0.923,-0.258 -1.395,-0.177c-0.472,0.081 -0.909,0.302 -1.254,0.634c-0.346,0.332 -0.584,0.759 -0.685,1.228c-0.1,0.468 -0.058,0.956 0.121,1.4c0.179,0.445 0.487,0.825 0.885,1.093c0.397,0.268 0.865,0.411 1.344,0.41c0.312,0.022 0.625,-0.022 0.919,-0.129c0.294,-0.106 0.563,-0.273 0.789,-0.49c0.225,-0.217 0.403,-0.478 0.521,-0.768c0.119,-0.289 0.175,-0.6 0.166,-0.913Z" style="fill:#fff;fill-rule:nonzero;"/><path d="M67.982,16.159c-0.004,-1.039 0.3,-2.055 0.874,-2.921c0.574,-0.865 1.392,-1.541 2.351,-1.941c0.958,-0.401 2.014,-0.508 3.033,-0.308c1.019,0.2 1.956,0.698 2.692,1.431c0.736,0.733 1.237,1.668 1.442,2.687c0.204,1.018 0.101,2.074 -0.295,3.034c-0.397,0.96 -1.069,1.781 -1.933,2.358c-0.863,0.578 -1.878,0.886 -2.917,0.886c-0.689,0.008 -1.374,-0.122 -2.012,-0.381c-0.639,-0.26 -1.22,-0.644 -1.708,-1.131c-0.489,-0.486 -0.875,-1.065 -1.137,-1.703c-0.263,-0.638 -0.395,-1.321 -0.39,-2.011Zm7.524,0c-0.012,-0.448 -0.156,-0.882 -0.414,-1.248c-0.258,-0.366 -0.618,-0.649 -1.035,-0.811c-0.417,-0.163 -0.873,-0.199 -1.311,-0.104c-0.438,0.095 -0.838,0.317 -1.15,0.638c-0.312,0.321 -0.523,0.727 -0.606,1.167c-0.083,0.44 -0.034,0.895 0.14,1.307c0.175,0.413 0.467,0.765 0.84,1.012c0.373,0.248 0.811,0.38 1.259,0.38c0.307,0.008 0.612,-0.047 0.896,-0.163c0.284,-0.116 0.542,-0.289 0.755,-0.509c0.214,-0.22 0.38,-0.482 0.488,-0.769c0.108,-0.287 0.155,-0.594 0.138,-0.9Z" style="fill:#fff;fill-rule:nonzero;"/><path d="M79.861,8.556c0,-0.352 0.105,-0.697 0.3,-0.99c0.196,-0.293 0.474,-0.521 0.8,-0.656c0.326,-0.135 0.684,-0.171 1.03,-0.102c0.345,0.069 0.663,0.239 0.912,0.488c0.249,0.249 0.419,0.567 0.488,0.912c0.069,0.346 0.033,0.704 -0.102,1.03c-0.135,0.326 -0.363,0.604 -0.656,0.8c-0.293,0.195 -0.637,0.3 -0.99,0.3c-0.471,-0.005 -0.922,-0.194 -1.255,-0.527c-0.333,-0.333 -0.522,-0.784 -0.527,-1.255Zm0.3,2.653l2.971,-0l0,9.9l-2.975,0l0.004,-9.9Z" style="fill:#fff;fill-rule:nonzero;"/><path d="M95.956,16.159c0.034,0.654 -0.061,1.309 -0.281,1.926c-0.219,0.618 -0.558,1.185 -0.998,1.671c-0.44,0.486 -0.971,0.88 -1.564,1.159c-0.593,0.28 -1.234,0.439 -1.889,0.47c-0.55,0.03 -1.1,-0.063 -1.611,-0.272c-0.51,-0.209 -0.967,-0.528 -1.338,-0.936l0,4.891l-2.97,0l0,-13.859l2.97,0l0,0.93c0.371,-0.407 0.829,-0.727 1.339,-0.935c0.51,-0.209 1.06,-0.302 1.61,-0.272c0.655,0.031 1.297,0.19 1.889,0.47c0.593,0.279 1.125,0.673 1.564,1.159c0.44,0.486 0.78,1.054 0.999,1.671c0.219,0.618 0.315,1.273 0.28,1.927Zm-2.97,0c-0.012,-0.463 -0.16,-0.913 -0.425,-1.293c-0.266,-0.379 -0.638,-0.672 -1.07,-0.841c-0.431,-0.17 -0.903,-0.208 -1.356,-0.11c-0.453,0.097 -0.867,0.326 -1.191,0.658c-0.324,0.332 -0.542,0.752 -0.628,1.207c-0.086,0.456 -0.036,0.926 0.144,1.353c0.18,0.427 0.482,0.792 0.868,1.048c0.386,0.256 0.84,0.393 1.303,0.393c0.318,0.014 0.636,-0.039 0.932,-0.156c0.296,-0.117 0.564,-0.296 0.787,-0.524c0.222,-0.228 0.393,-0.5 0.503,-0.799c0.11,-0.299 0.155,-0.618 0.133,-0.936Z" style="fill:#fff;fill-rule:nonzero;"/><path d="M105.121,18.138c0,2.277 -1.979,3.247 -4.117,3.247c-0.864,0.078 -1.731,-0.104 -2.49,-0.525c-0.759,-0.42 -1.374,-1.058 -1.767,-1.831l2.573,-1.465c0.104,0.357 0.328,0.669 0.633,0.881c0.306,0.213 0.676,0.314 1.047,0.287c0.712,-0 1.069,-0.218 1.069,-0.613c0,-1.09 -4.871,-0.515 -4.871,-3.94c0,-2.159 1.822,-3.247 3.881,-3.247c0.774,-0.025 1.54,0.159 2.219,0.532c0.679,0.372 1.246,0.92 1.641,1.586l-2.534,1.366c-0.111,-0.259 -0.296,-0.48 -0.532,-0.635c-0.236,-0.155 -0.512,-0.237 -0.794,-0.236c-0.515,-0 -0.832,0.2 -0.832,0.554c0.004,1.129 4.874,0.376 4.874,4.039Z" style="fill:#fff;fill-rule:nonzero;"/><path d="M115.97,11.209l0,9.9l-2.97,0l0,-0.931c-0.343,0.411 -0.778,0.735 -1.27,0.944c-0.492,0.21 -1.026,0.301 -1.56,0.264c-2,0 -3.7,-1.425 -3.7,-4.1l0,-6.077l2.97,-0l0,5.642c-0.025,0.236 0.002,0.474 0.079,0.698c0.076,0.225 0.201,0.43 0.365,0.601c0.164,0.171 0.363,0.305 0.584,0.391c0.22,0.087 0.457,0.124 0.694,0.11c1.089,-0 1.841,-0.633 1.841,-2.039l0,-5.4l2.967,-0.003Z" style="fill:#fff;fill-rule:nonzero;"/><path d="M133,15.03l0,6.078l-2.97,0l0,-5.821c0,-0.99 -0.475,-1.623 -1.425,-1.623c-0.99,-0 -1.545,0.693 -1.545,1.861l0,5.583l-2.969,-0l0,-5.821c0,-0.99 -0.475,-1.623 -1.426,-1.623c-0.99,-0 -1.544,0.693 -1.544,1.861l0,5.583l-2.97,-0l0,-9.9l2.97,-0l0,0.91c0.308,-0.404 0.712,-0.724 1.175,-0.931c0.464,-0.208 0.972,-0.296 1.478,-0.256c0.508,-0.025 1.014,0.082 1.469,0.311c0.454,0.229 0.841,0.572 1.124,0.995c0.329,-0.443 0.765,-0.795 1.267,-1.023c0.502,-0.229 1.054,-0.326 1.604,-0.283c2.273,0.001 3.762,1.624 3.762,4.099Z" style="fill:#fff;fill-rule:nonzero;"/><path d="M135.512,11.148c1.217,0 2.204,-0.987 2.204,-2.204c0,-1.217 -0.987,-2.204 -2.204,-2.204c-1.217,0 -2.204,0.987 -2.204,2.204c0,1.217 0.987,2.204 2.204,2.204Z" style="fill:#fff;fill-rule:nonzero;"/></svg>